<?xml version="1.0" encoding="UTF-8" standalone="no"?>
<!-- Created with Inkscape (http://www.inkscape.org/) -->

<svg
   xmlns:dc="http://purl.org/dc/elements/1.1/"
   xmlns:cc="http://creativecommons.org/ns#"
   xmlns:rdf="http://www.w3.org/1999/02/22-rdf-syntax-ns#"
   xmlns:svg="http://www.w3.org/2000/svg"
   xmlns="http://www.w3.org/2000/svg"
   xmlns:sodipodi="http://sodipodi.sourceforge.net/DTD/sodipodi-0.dtd"
   xmlns:inkscape="http://www.inkscape.org/namespaces/inkscape"
   width="245.96764mm"
   height="52.858475mm"
   viewBox="0 0 871.53885 187.29387"
   id="svg2"
   version="1.1"
   inkscape:version="0.91 r13725"
   sodipodi:docname="logo.svg"
   inkscape:export-filename="/home/robo/Documents/EconBusinessProject/logo.svg.png"
   inkscape:export-xdpi="90.000671"
   inkscape:export-ydpi="90.000671">
  <defs
     id="defs4" />
  <sodipodi:namedview
     id="base"
     pagecolor="#a09073"
     bordercolor="#666666"
     borderopacity="1.0"
     inkscape:pageopacity="0"
     inkscape:pageshadow="2"
     inkscape:zoom="0.98994949"
     inkscape:cx="364.05526"
     inkscape:cy="56.908132"
     inkscape:document-units="px"
     inkscape:current-layer="layer1"
     showgrid="false"
     fit-margin-top="5"
     fit-margin-left="5"
     fit-margin-right="5"
     fit-margin-bottom="5"
     inkscape:window-width="1366"
     inkscape:window-height="744"
     inkscape:window-x="0"
     inkscape:window-y="24"
     inkscape:window-maximized="1" />
  <metadata
     id="metadata7">
    <rdf:RDF>
      <cc:Work
         rdf:about="">
        <dc:format>image/svg+xml</dc:format>
        <dc:type
           rdf:resource="http://purl.org/dc/dcmitype/StillImage" />
        <dc:title></dc:title>
      </cc:Work>
    </rdf:RDF>
  </metadata>
  <g
     inkscape:label="Layer 1"
     inkscape:groupmode="layer"
     id="layer1"
     transform="translate(-85.454411,-333.64817)">
    <rect
       style="opacity:1;fill:#f1fdd3;fill-opacity:1;stroke:none;stroke-width:0.60000002;stroke-linecap:butt;stroke-linejoin:miter;stroke-miterlimit:4;stroke-dasharray:none;stroke-dashoffset:0;stroke-opacity:1"
       id="rect4279-2"
       width="374.26166"
       height="91.418839"
       x="552.50165"
       y="380.22568" />
    <rect
       style="opacity:1;fill:#f1fdd3;fill-opacity:1;stroke:none;stroke-width:0.60000002;stroke-linecap:butt;stroke-linejoin:miter;stroke-miterlimit:4;stroke-dasharray:none;stroke-dashoffset:0;stroke-opacity:1"
       id="rect4279"
       width="317.1879"
       height="91.418808"
       x="171.67393"
       y="379.97308" />
    <path
       style="opacity:1;fill:#f1fdd3;fill-opacity:1;stroke:none;stroke-width:0.60000002;stroke-linecap:butt;stroke-linejoin:miter;stroke-miterlimit:4;stroke-dasharray:none;stroke-dashoffset:0;stroke-opacity:1"
       id="path4277"
       sodipodi:type="arc"
       sodipodi:cx="519.92401"
       sodipodi:cy="426.94519"
       sodipodi:rx="26.011433"
       sodipodi:ry="73.236061"
       sodipodi:start="0"
       sodipodi:end="6.2811607"
       sodipodi:open="true"
       d="m 545.93544,426.94519 a 26.011433,73.236061 0 0 1 -25.99826,73.23605 26.011433,73.236061 0 0 1 -26.02459,-73.16191 26.011433,73.236061 0 0 1 25.97192,-73.31012 26.011433,73.236061 0 0 1 26.05088,73.08771" />
    <rect
       style="opacity:1;fill:#f1fdd3;fill-opacity:1;stroke:none;stroke-width:0.44947433;stroke-linecap:butt;stroke-linejoin:miter;stroke-miterlimit:4;stroke-dasharray:none;stroke-dashoffset:0;stroke-opacity:1"
       id="rect4260"
       width="50.50766"
       height="142.65054"
       x="115.75601"
       y="355.4805"
       ry="0" />
    <path
       inkscape:connector-curvature="0"
       id="path4171"
       style="font-style:normal;font-variant:normal;font-weight:normal;font-stretch:normal;font-size:149.17198181px;line-height:125%;font-family:'Grudge 2 BRK';-inkscape-font-specification:'Grudge 2 BRK';letter-spacing:0px;word-spacing:0px;fill:#526b13;fill-opacity:1;stroke:none;stroke-width:1px;stroke-linecap:butt;stroke-linejoin:miter;stroke-opacity:1"
       d="m 173.53776,377.33976 0,96.92658 -4.13701,0 0,15.91058 c 0,1.82881 -0.32447,3.41377 -0.97341,4.75489 -0.56783,1.46304 -1.25733,2.56032 -2.06851,3.29184 -0.73005,0.85345 -1.46011,1.40209 -2.19017,1.64592 -0.73006,0.36577 -1.25733,0.42673 -1.5818,0.18288 -2.51465,0 -4.42092,-1.8288 -5.71881,-5.4864 l -6.81389,-20.29971 -17.52146,0 -6.81389,20.29971 c -0.48671,1.70688 -1.29789,3.048 -2.43354,4.02337 -1.05453,0.97535 -2.19017,1.46303 -3.40694,1.46303 -0.24336,0.24385 -0.73007,0.18289 -1.46013,-0.18288 -0.73005,-0.24383 -1.50067,-0.79247 -2.31185,-1.64592 -0.81118,-0.73152 -1.50068,-1.76784 -2.06851,-3.10896 -0.56782,-1.34112 -0.81117,-2.98704 -0.73006,-4.93777 l 0,-15.91058 -4.13701,-20.00001 -6,-28.46328 6,-28.46328 4.13701,-20.00001 0,-16.09346 c 0,-2.80417 0.60838,-5.12065 1.82515,-6.94946 1.29789,-1.95072 2.87969,-2.92608 4.7454,-2.92608 1.78459,0 3.32582,0.9144 4.62371,2.7432 1.29788,1.82881 1.94682,4.20625 1.94682,7.13234 l 0,16.09346 29.81081,0 0,-16.09346 c 0,-2.80417 0.60838,-5.12065 1.82515,-6.94946 1.29789,-1.95072 2.87969,-2.92608 4.7454,-2.92608 1.78459,0 3.32582,0.9144 4.62371,2.7432 1.29788,1.82881 1.94682,4.20625 1.94682,7.13234 l 0,16.09346 z m -7.78731,96.92658 0,-96.92658 0,-16.09346 c 0,-2.92609 -0.97341,-4.38913 -2.92023,-4.38913 -0.8923,0 -1.62236,0.42672 -2.19019,1.28017 -0.56782,0.85344 -0.85173,1.88976 -0.85173,3.10896 l 0,16.09346 0,82.66191 c 0,1.46304 -0.44615,2.31648 -1.33845,2.56033 -0.8923,0.36575 -1.5818,-0.12193 -2.06851,-1.46305 l -12.41102,-37.30758 c -0.64895,-1.70689 -1.54124,-2.56033 -2.67689,-2.56033 -1.13565,0 -2.02794,0.85344 -2.67689,2.56033 l -12.41103,37.30758 c -0.4867,1.34112 -1.13564,1.8288 -1.94682,1.46305 -0.97341,-0.12192 -1.46012,-0.97536 -1.46012,-2.56033 l 0,-82.66191 0,-16.09346 c 0,-2.92609 -0.97341,-4.38913 -2.92024,-4.38913 -0.8923,0 -1.62236,0.42672 -2.19019,1.28017 -0.56782,0.85344 -0.85173,1.88976 -0.85173,3.10896 l 0,16.09346 0,96.92658 0,15.91058 c 0,2.43841 0.77062,3.90145 2.31186,4.38913 1.70347,0.60959 2.83912,-0.18289 3.40694,-2.37744 l 5.96216,-17.92227 11.19426,-33.64998 c 0.40559,-0.97537 0.93286,-1.46305 1.5818,-1.46305 0.81118,0 1.33845,0.48768 1.5818,1.46305 l 11.19425,33.64998 6.08384,17.92227 c 0.32447,0.85343 0.77062,1.52399 1.33845,2.01168 0.56783,0.48768 1.21677,0.6096 1.94683,0.36576 1.54123,-0.48768 2.31185,-1.95072 2.31185,-4.38913 z"
       sodipodi:nodetypes="cccsccccccccccccsccccccsssssccsssssccccsssscscccscccscssssccsccccscccscsc" />
    <path
       inkscape:connector-curvature="0"
       id="path4173"
       style="font-style:normal;font-variant:normal;font-weight:normal;font-stretch:normal;font-size:149.17198181px;line-height:125%;font-family:'Grudge 2 BRK';-inkscape-font-specification:'Grudge 2 BRK';letter-spacing:0px;word-spacing:0px;fill:#526b13;fill-opacity:1;stroke:none;stroke-width:1px;stroke-linecap:butt;stroke-linejoin:miter;stroke-opacity:1"
       d="m 235.91335,377.33976 0,96.92658 -64.367,0 0,-96.92658 64.367,0 z M 225.20579,462.562 q 2.92024,0 2.92024,-4.57201 l 0,-16.09348 q 0,-8.59537 -8.8824,-13.53313 -1.09509,-0.73153 -1.09509,-2.56033 0,-1.64593 1.09509,-2.56033 8.8824,-4.93776 8.8824,-13.53313 0,-13.89892 -24.09199,-18.6538 -5.96216,-1.09728 -11.80265,-1.28016 -5.84048,-0.36576 -9.97749,-0.73152 -3.04192,0 -3.04192,4.572 l 0,64.37388 q 0,4.57201 3.04192,4.57201 2.92024,0 2.92024,-4.57201 l 0,-24.87173 q 0,-1.09728 0.48671,-1.8288 0.60839,-0.9144 1.33844,-0.9144 5.47546,0 10.82924,0.73152 5.47544,0.73153 10.9509,2.19456 10.82923,2.74321 13.01941,7.49809 l 0.36503,1.46305 0,15.72771 q 0,4.57201 3.04192,4.57201 z m -3.77198,-51.02361 q -2.67689,4.02336 -12.89773,6.94945 -10.09917,2.7432 -21.53679,2.7432 -0.73005,0 -1.33844,-0.73152 -0.48671,-0.9144 -0.48671,-2.01168 l 0,-17.73939 q 0,-0.9144 0.48671,-1.64593 0.60839,-0.9144 1.33844,-0.9144 5.71881,0 10.95091,0.73153 5.35377,0.73152 10.4642,2.19455 10.70755,2.74321 13.01941,6.76658 0.60838,0.91441 0.60838,1.82881 0,0.9144 -0.60838,1.8288 z" />
    <path
       inkscape:connector-curvature="0"
       id="path4175"
       style="font-style:normal;font-variant:normal;font-weight:normal;font-stretch:normal;font-size:149.17198181px;line-height:125%;font-family:'Grudge 2 BRK';-inkscape-font-specification:'Grudge 2 BRK';letter-spacing:0px;word-spacing:0px;fill:#526b13;fill-opacity:1;stroke:none;stroke-width:1px;stroke-linecap:butt;stroke-linejoin:miter;stroke-opacity:1"
       d="m 299.12821,377.33976 0,96.92658 -64.367,0 0,-96.92658 64.367,0 z M 288.42066,462.562 q 2.92023,0 2.92023,-4.57201 l 0,-32.18694 q 0,-3.84048 -0.73005,-8.59537 -0.73006,-4.93778 -2.19018,-9.50979 -2.79857,-7.86384 -7.05726,-12.61873 -5.7188,-6.03505 -14.47953,-6.03505 -8.76072,0 -14.35785,6.03505 -4.50204,4.57201 -7.05725,12.61873 -1.33845,4.02338 -2.19018,9.3269 -0.85174,5.30353 -0.85174,8.77826 l 0,32.18694 q 0,4.57201 3.04192,4.57201 2.92024,0 2.92024,-4.57201 l 0,-25.0546 q 0,-2.56033 1.82515,-2.56033 l 33.33943,0 q 1.82515,0 1.82515,2.56033 l 0,25.0546 q 0,4.57201 3.04192,4.57201 z m -3.77199,-44.62281 q 0.24336,1.28017 -0.24335,2.37745 -0.48671,0.9144 -1.46012,0.9144 l -32.00098,0 q -0.85174,0 -1.46012,-0.9144 -0.60839,-1.09728 -0.36503,-2.37745 1.46012,-8.04672 4.62371,-12.80161 4.7454,-7.13234 13.14109,-7.13234 8.27402,0 13.01942,7.13234 3.52862,4.93776 4.74538,12.80161 z" />
    <path
       inkscape:connector-curvature="0"
       id="path4177"
       style="font-style:normal;font-variant:normal;font-weight:normal;font-stretch:normal;font-size:149.17198181px;line-height:125%;font-family:'Grudge 2 BRK';-inkscape-font-specification:'Grudge 2 BRK';letter-spacing:0px;word-spacing:0px;fill:#526b13;fill-opacity:1;stroke:none;stroke-width:1px;stroke-linecap:butt;stroke-linejoin:miter;stroke-opacity:1"
       d="m 362.34307,377.33976 0,96.92658 -64.36699,0 0,-96.92658 64.36699,0 z m -7.78731,32.36983 q 0,-13.89892 -24.092,-18.6538 -5.96216,-1.09728 -11.80265,-1.28016 -5.84047,-0.36576 -9.97749,-0.73152 -3.04191,0 -3.04191,4.572 l 0,64.37388 q 0,4.57201 3.04191,4.57201 2.92025,0 2.92025,-4.57201 l 0,-25.23748 q 0,-2.56033 1.70347,-2.56033 3.52863,0 7.78731,-0.54864 4.25869,-0.54864 9.36911,-1.46304 24.092,-4.38913 24.092,-18.47091 z m -6.69222,-1.82881 q 0.60838,0.91441 0.60838,1.82881 0,0.9144 -0.60838,1.8288 -2.67689,4.02336 -12.89774,6.94945 -10.09916,2.7432 -21.53678,2.7432 -0.73006,0 -1.33844,-0.73152 -0.48671,-0.9144 -0.48671,-2.01168 l 0,-17.73939 q 0,-0.9144 0.48671,-1.64593 0.60838,-0.9144 1.33844,-0.9144 5.7188,0 10.95091,0.73153 5.35378,0.73152 10.4642,2.19455 10.70755,2.74321 13.01941,6.76658 z" />
    <path
       inkscape:connector-curvature="0"
       id="path4179"
       style="font-style:normal;font-variant:normal;font-weight:normal;font-stretch:normal;font-size:149.17198181px;line-height:125%;font-family:'Grudge 2 BRK';-inkscape-font-specification:'Grudge 2 BRK';letter-spacing:0px;word-spacing:0px;fill:#526b13;fill-opacity:1;stroke:none;stroke-width:1px;stroke-linecap:butt;stroke-linejoin:miter;stroke-opacity:1"
       d="m 425.55794,377.33976 0,96.92658 -64.36699,0 0,-96.92658 64.36699,0 z m -7.78731,80.65023 q 0,-4.38913 -2.92025,-4.38913 l -16.79138,0 q -1.70348,0 -1.70348,-2.74321 l 0,-50.1092 q 0,-2.74321 1.70348,-2.74321 l 16.79138,0 q 2.92025,0 2.92025,-4.38913 0,-2.01168 -0.85174,-3.29184 -0.85174,-1.28016 -2.06851,-1.28016 l -42.95188,0 q -3.04192,0 -3.04192,4.572 0,4.38913 3.04192,4.38913 l 16.66972,0 q 1.82515,0 1.82515,2.74321 l 0,50.1092 q 0,2.74321 -1.82515,2.74321 l -16.66972,0 q -1.33845,0 -2.19018,1.28015 -0.85174,1.28017 -0.85174,3.10898 0,4.57201 3.04192,4.57201 l 42.95188,0 q 2.92025,0 2.92025,-4.57201 z" />
    <path
       inkscape:connector-curvature="0"
       id="path4181"
       style="font-style:normal;font-variant:normal;font-weight:normal;font-stretch:normal;font-size:149.17198181px;line-height:125%;font-family:'Grudge 2 BRK';-inkscape-font-specification:'Grudge 2 BRK';letter-spacing:0px;word-spacing:0px;fill:#526b13;fill-opacity:1;stroke:none;stroke-width:1px;stroke-linecap:butt;stroke-linejoin:miter;stroke-opacity:1"
       d="m 488.77281,377.33976 0,96.92658 -64.36699,0 0,-96.92658 64.36699,0 z m -7.78731,48.46329 q 0,-16.09346 -11.43761,-25.60325 -8.76073,-6.94944 -21.65846,-9.69265 -3.52862,-0.73152 -6.8139,-1.09728 -3.1636,-0.36576 -5.96216,-0.36576 -3.04191,0 -3.04191,4.572 l 0,64.37388 q 0,4.57201 3.04191,4.57201 3.1636,0 6.32719,-0.18288 3.1636,-0.36577 6.32719,-1.09729 12.89773,-2.74321 21.65846,-9.69265 11.55929,-9.69267 11.55929,-25.78613 z m -5.96216,0 q 0,14.26466 -14.35786,21.94564 -10.46419,5.48641 -20.68504,5.48641 -0.73006,0.18288 -1.33845,-0.73152 -0.60838,-0.54865 -0.60838,-1.82881 l 0,-49.74344 q 0,-1.28016 0.60838,-1.82881 0.60839,-0.9144 1.33845,-0.73152 10.22085,0 20.56337,5.30353 14.47953,7.68097 14.47953,22.12852 z" />
    <path
       inkscape:connector-curvature="0"
       id="path4183"
       style="font-style:normal;font-variant:normal;font-weight:normal;font-stretch:normal;font-size:149.17198181px;line-height:125%;font-family:'Grudge 2 BRK';-inkscape-font-specification:'Grudge 2 BRK';letter-spacing:0px;word-spacing:0px;fill:#526b13;fill-opacity:1;stroke:none;stroke-width:1px;stroke-linecap:butt;stroke-linejoin:miter;stroke-opacity:1"
       d="m 551.98766,377.33976 0,96.92658 -9.97749,0 q -4.01534,12.61873 -10.22085,19.20242 -6.20551,6.58369 -12.04599,6.58369 -2.92025,0 -6.08384,-1.64591 -3.04192,-1.64593 -5.96216,-4.93778 -2.92025,-3.29184 -5.59713,-8.04672 -2.55521,-4.7549 -4.50205,-11.1557 l -9.97749,0 0,-96.92658 9.97749,0 q 1.94684,-6.21792 4.50205,-10.97281 2.67688,-4.93777 5.59713,-8.22961 3.04192,-3.29185 6.08384,-4.93778 3.04191,-1.8288 5.96216,-1.8288 5.84048,0 12.04599,6.58369 6.20551,6.5837 10.22085,19.38531 l 9.97749,0 z m -7.78731,48.46329 q 0,-16.64211 -1.70347,-28.16357 -1.5818,-11.52146 -4.50205,-20.29972 -3.40694,-10.05841 -8.51737,-15.17906 -4.98875,-5.30353 -9.73413,-5.30353 -4.62372,0 -9.73414,5.12065 -4.98875,4.93777 -8.51738,15.36194 -2.79856,8.22962 -4.50203,20.29972 -1.70348,12.07011 -1.70348,28.16357 0,16.64211 1.58179,28.16357 1.70348,11.52146 4.62372,20.29972 3.52863,9.87553 8.51738,14.99618 5.11042,5.30353 9.73414,5.30353 4.74538,0 9.49078,-4.93777 5.2321,-5.48641 8.76072,-15.36194 2.79857,-8.22962 4.50205,-20.29972 1.70347,-12.07011 1.70347,-28.16357 z m -5.96216,0 q 0,17.73939 -1.94683,29.44373 -1.82515,11.70435 -5.2321,19.01956 -2.31186,4.93776 -5.47545,8.04672 -3.1636,3.29186 -5.71881,3.29186 -2.06851,0 -4.38036,-1.82881 -3.89366,-2.92608 -7.05725,-9.69266 -3.1636,-6.76657 -4.98875,-17.73939 -2.19018,-12.80162 -2.19018,-30.54101 0,-17.19075 2.19018,-30.35813 1.82515,-10.2413 4.98875,-18.10516 1.21676,-2.56031 2.55521,-4.572 1.33844,-2.01169 2.67689,-3.47472 3.40694,-3.47473 5.96215,-3.47473 2.79857,0 5.84049,3.10896 3.1636,3.10897 5.59713,8.41249 3.16359,6.94946 5.11042,18.83668 2.06851,11.88722 2.06851,29.62661 z m -25.30877,-48.46329 13.6278,0 q -1.46012,-2.37744 -3.40695,-4.02336 -1.82515,-1.8288 -3.40694,-2.19456 -1.46013,0.18288 -2.43354,1.09728 -2.43353,1.64592 -4.38037,5.12064 z m 13.6278,96.92658 -13.6278,0 q 1.46013,2.37744 3.28528,4.20624 1.94683,1.64593 3.52863,2.01168 1.46012,-0.18288 2.43353,-1.09728 2.43353,-1.64592 4.38036,-5.12064 z" />
    <path
       inkscape:connector-curvature="0"
       id="path4185"
       style="font-style:normal;font-variant:normal;font-weight:normal;font-stretch:normal;font-size:149.17198181px;line-height:125%;font-family:'Grudge 2 BRK';-inkscape-font-specification:'Grudge 2 BRK';letter-spacing:0px;word-spacing:0px;fill:#526b13;fill-opacity:1;stroke:none;stroke-width:1px;stroke-linecap:butt;stroke-linejoin:miter;stroke-opacity:1"
       d="m 615.20253,377.33976 0,96.92658 -64.367,0 0,-96.92658 64.367,0 z M 604.49498,462.562 q 2.92024,0 2.92024,-4.57201 l 0,-16.09348 q 0,-8.59537 -8.8824,-13.53313 -1.09509,-0.73153 -1.09509,-2.56033 0,-1.64593 1.09509,-2.56033 8.8824,-4.93776 8.8824,-13.53313 0,-13.89892 -24.092,-18.6538 -5.96215,-1.09728 -11.80264,-1.28016 -5.84048,-0.36576 -9.97749,-0.73152 -3.04192,0 -3.04192,4.572 l 0,64.37388 q 0,4.57201 3.04192,4.57201 2.92025,0 2.92025,-4.57201 l 0,-24.87173 q 0,-1.09728 0.4867,-1.8288 0.60838,-0.9144 1.33845,-0.9144 5.47545,0 10.82922,0.73152 5.47545,0.73153 10.95091,2.19456 10.82923,2.74321 13.01941,7.49809 l 0.36503,1.46305 0,15.72771 q 0,4.57201 3.04192,4.57201 z M 600.723,411.53839 q -2.67689,4.02336 -12.89773,6.94945 -10.09918,2.7432 -21.53678,2.7432 -0.73007,0 -1.33845,-0.73152 -0.4867,-0.9144 -0.4867,-2.01168 l 0,-17.73939 q 0,-0.9144 0.4867,-1.64593 0.60838,-0.9144 1.33845,-0.9144 5.7188,0 10.9509,0.73153 5.35377,0.73152 10.4642,2.19455 10.70755,2.74321 13.01941,6.76658 0.60839,0.91441 0.60839,1.82881 0,0.9144 -0.60839,1.8288 z" />
    <path
       inkscape:connector-curvature="0"
       id="path4187"
       style="font-style:normal;font-variant:normal;font-weight:normal;font-stretch:normal;font-size:149.17198181px;line-height:125%;font-family:'Grudge 2 BRK';-inkscape-font-specification:'Grudge 2 BRK';letter-spacing:0px;word-spacing:0px;fill:#526b13;fill-opacity:1;stroke:none;stroke-width:1px;stroke-linecap:butt;stroke-linejoin:miter;stroke-opacity:1"
       d="m 678.4174,377.33976 0,96.92658 -64.36699,0 0,-96.92658 64.36699,0 z m -11.19426,74.24942 q 1.5818,-2.92609 2.55521,-6.40082 0.24336,-1.09728 0.36504,-2.56032 0.24335,-1.46304 0.4867,-3.29184 l 0,-13.53315 q 0,-2.01168 -0.85174,-3.29185 -0.85173,-1.28016 -2.0685,-1.28016 l -21.53678,0 q -2.92024,0 -2.92024,4.57201 0,2.01168 0.85174,3.29185 0.85173,1.28016 2.0685,1.28016 l 16.66971,0 q 1.82515,0 1.82515,2.56033 l 0,6.21792 q 0,5.48641 -4.25868,9.69266 -5.35378,4.75489 -14.23618,4.75489 -9.73414,0 -14.60121,-10.05842 -3.89365,-8.04674 -3.89365,-17.73939 0,-10.42417 3.77197,-17.73939 4.86707,-10.05842 14.72289,-10.05842 8.3957,0 13.38444,3.29184 4.13701,2.74321 4.98875,7.31522 l 0.12167,1.09729 q 0,4.38912 3.04192,4.38912 2.92024,0 2.92024,-4.38912 0,-8.59539 -5.96216,-14.26467 -6.44886,-6.40081 -18.49486,-6.40081 -8.76072,0 -14.35785,6.03505 -4.50205,4.57201 -7.05726,12.61873 -1.33844,4.02338 -2.19018,9.3269 -0.85174,5.30353 -0.85174,8.77826 0,2.92608 0.48671,7.68097 0.60839,4.57201 2.55521,10.42419 2.67689,8.04672 6.93557,12.61873 5.59713,6.03506 14.47954,6.03506 14.84456,0 21.05007,-10.97282 z" />
    <path
       inkscape:connector-curvature="0"
       id="path4189"
       style="font-style:normal;font-variant:normal;font-weight:normal;font-stretch:normal;font-size:149.17198181px;line-height:125%;font-family:'Grudge 2 BRK';-inkscape-font-specification:'Grudge 2 BRK';letter-spacing:0px;word-spacing:0px;fill:#526b13;fill-opacity:1;stroke:none;stroke-width:1px;stroke-linecap:butt;stroke-linejoin:miter;stroke-opacity:1"
       d="m 741.63228,377.33976 0,96.92658 -64.367,0 0,-96.92658 64.367,0 z M 730.92472,462.562 q 2.92025,0 2.92025,-4.57201 l 0,-32.18694 q 0,-3.84048 -0.73006,-8.59537 -0.73006,-4.93778 -2.19019,-9.50979 -2.79856,-7.86384 -7.05724,-12.61873 -5.71882,-6.03505 -14.47954,-6.03505 -8.76072,0 -14.35785,6.03505 -4.50205,4.57201 -7.05726,12.61873 -1.33844,4.02338 -2.19017,9.3269 -0.85175,5.30353 -0.85175,8.77826 l 0,32.18694 q 0,4.57201 3.04192,4.57201 2.92025,0 2.92025,-4.57201 l 0,-25.0546 q 0,-2.56033 1.82515,-2.56033 l 33.33942,0 q 1.82515,0 1.82515,2.56033 l 0,25.0546 q 0,4.57201 3.04192,4.57201 z m -3.77198,-44.62281 q 0.24335,1.28017 -0.24335,2.37745 -0.4867,0.9144 -1.46012,0.9144 l -32.00098,0 q -0.85174,0 -1.46012,-0.9144 -0.60838,-1.09728 -0.36503,-2.37745 1.46012,-8.04672 4.62372,-12.80161 4.74538,-7.13234 13.14108,-7.13234 8.27402,0 13.01941,7.13234 3.52863,4.93776 4.74539,12.80161 z" />
    <path
       inkscape:connector-curvature="0"
       id="path4191"
       style="font-style:normal;font-variant:normal;font-weight:normal;font-stretch:normal;font-size:149.17198181px;line-height:125%;font-family:'Grudge 2 BRK';-inkscape-font-specification:'Grudge 2 BRK';letter-spacing:0px;word-spacing:0px;fill:#526b13;fill-opacity:1;stroke:none;stroke-width:1px;stroke-linecap:butt;stroke-linejoin:miter;stroke-opacity:1"
       d="m 804.84715,377.33976 0,96.92658 -64.367,0 0,-96.92658 64.367,0 z m -7.78731,16.27635 q 0,-2.01168 -0.85174,-3.29184 -0.85174,-1.28016 -2.06851,-1.28016 -3.04192,0 -3.04192,4.572 l 0,47.18312 q 0,1.82881 -1.09508,2.37745 -0.97342,0.9144 -1.94683,-0.54864 l -34.79955,-52.30377 q -0.85174,-1.28016 -2.06851,-1.28016 l -1.21676,0.36576 q -1.82515,1.46304 -1.82515,4.20624 l 0,64.37388 q 0,4.57201 3.04191,4.57201 2.92025,0 2.92025,-4.57201 l 0,-47.18312 q 0,-1.46305 1.09509,-2.37745 1.09509,-0.73153 1.94683,0.54864 l 34.79955,52.30377 q 0.85173,1.28017 2.19017,1.28017 -0.12167,0 1.0951,-0.36577 1.82515,-1.28016 1.82515,-4.20624 l 0,-64.37388 z" />
    <path
       inkscape:connector-curvature="0"
       id="path4193"
       style="font-style:normal;font-variant:normal;font-weight:normal;font-stretch:normal;font-size:149.17198181px;line-height:125%;font-family:'Grudge 2 BRK';-inkscape-font-specification:'Grudge 2 BRK';letter-spacing:0px;word-spacing:0px;fill:#526b13;fill-opacity:1;stroke:none;stroke-width:1px;stroke-linecap:butt;stroke-linejoin:miter;stroke-opacity:1"
       d="m 868.06198,377.33976 0,96.92658 -64.36695,0 0,-96.92658 64.36695,0 z m -7.78731,80.65023 q 0,-4.38913 -2.92021,-4.38913 l -16.79137,0 q -1.70346,0 -1.70346,-2.74321 l 0,-50.1092 q 0,-2.74321 1.70346,-2.74321 l 16.79137,0 q 2.92021,0 2.92021,-4.38913 0,-2.01168 -0.85173,-3.29184 -0.85173,-1.28016 -2.06848,-1.28016 l -42.95188,0 q -3.04192,0 -3.04192,4.572 0,4.38913 3.04192,4.38913 l 16.66974,0 q 1.82509,0 1.82509,2.74321 l 0,50.1092 q 0,2.74321 -1.82509,2.74321 l -16.66974,0 q -1.33845,0 -2.19018,1.28015 -0.85174,1.28017 -0.85174,3.10898 0,4.57201 3.04192,4.57201 l 42.95188,0 q 2.92021,0 2.92021,-4.57201 z" />
    <path
       inkscape:connector-curvature="0"
       id="path4195"
       style="font-style:normal;font-variant:normal;font-weight:normal;font-stretch:normal;font-size:149.17198181px;line-height:125%;font-family:'Grudge 2 BRK';-inkscape-font-specification:'Grudge 2 BRK';letter-spacing:0px;word-spacing:0px;fill:#526b13;fill-opacity:1;stroke:none;stroke-width:1px;stroke-linecap:butt;stroke-linejoin:miter;stroke-opacity:1"
       d="m 931.27684,377.33976 4,20.23164 4,28.23165 -4,24.23164 -4,24.23165 -64.36701,0 0,-96.92658 z m -7.7873,64.55675 c 0,-2.92608 -0.97341,-4.38912 -2.92022,-4.38912 -0.8923,0 -1.62236,0.42672 -2.19019,1.28016 -0.56782,0.85344 -0.85173,1.88976 -0.85173,3.10896 l -0.1217,1.09729 c -0.56782,2.80416 -2.39296,5.30353 -5.47542,7.4981 -3.00138,2.07264 -7.30064,3.10896 -12.89779,3.10896 -6.48939,0 -11.35645,-3.35281 -14.60118,-10.05842 -2.59577,-5.36449 -3.89365,-11.27762 -3.89365,-17.73939 0,-6.94945 1.25732,-12.86258 3.77195,-17.73939 3.24473,-6.70561 8.15235,-10.05842 14.72288,-10.05842 5.59715,0 10.05862,1.09728 13.38442,3.29184 2.75804,1.82881 4.42097,4.26721 4.98879,7.31522 l 0.1217,1.09729 c 0,2.92608 1.01397,4.38912 3.04192,4.38912 1.94681,0 2.92022,-1.46304 2.92022,-4.38912 0,-5.73026 -1.98738,-10.48515 -5.96214,-14.26467 -4.29924,-4.26721 -10.46421,-6.40081 -18.49491,-6.40081 -5.84049,0 -10.62645,2.01168 -14.35786,6.03505 -3.00133,3.04801 -5.35372,7.25425 -7.05719,12.61873 -0.8923,2.68225 -1.62236,5.79122 -2.19019,9.3269 -0.56782,3.53569 -0.85173,6.46177 -0.85173,8.77826 0,1.95072 0.16221,4.51104 0.48663,7.68097 0.40561,3.04801 1.25738,6.52274 2.55529,10.42419 1.78455,5.36448 4.0964,9.57072 6.93557,12.61873 3.73141,4.02337 8.55791,6.03506 14.47948,6.03506 3.97481,0 7.50345,-0.54864 10.5859,-1.64593 3.08246,-1.09729 5.63766,-2.56033 7.66561,-4.38913 2.02795,-1.95072 3.5692,-4.14528 4.62377,-6.58369 1.05451,-2.56032 1.58177,-5.24257 1.58177,-8.04674 z"
       sodipodi:nodetypes="ccccccccssscccssscscccsscsccsscccssccs" />
    <path
       style="fill:#526b13;fill-opacity:1;fill-rule:evenodd;stroke:#526b13;stroke-width:4.90000153;stroke-linecap:butt;stroke-linejoin:miter;stroke-miterlimit:4;stroke-dasharray:none;stroke-opacity:1"
       d="m 118.97006,497.47728 c 19.38047,5.71519 35.34938,2.83072 44.23751,0.1173"
       id="path4148"
       inkscape:connector-curvature="0"
       sodipodi:nodetypes="cc" />
    <path
       style="fill:#f1fdd3;fill-opacity:1;fill-rule:evenodd;stroke:none;stroke-width:1px;stroke-linecap:butt;stroke-linejoin:miter;stroke-opacity:1"
       d="m 132.37269,474.83272 c 8.86049,-35.06011 17.8355,-0.0316 17.8355,-0.0316 z"
       id="path4224"
       inkscape:connector-curvature="0"
       sodipodi:nodetypes="ccc" />
    <path
       style="fill:#526b13;fill-opacity:1;fill-rule:evenodd;stroke:#526b13;stroke-width:4.90000153;stroke-linecap:butt;stroke-linejoin:miter;stroke-miterlimit:4;stroke-dasharray:none;stroke-opacity:1"
       d="m 119.30261,353.71466 c 19.38048,5.71519 35.34939,2.83072 44.23753,0.1173"
       id="path4148-6"
       inkscape:connector-curvature="0"
       sodipodi:nodetypes="cc" />
  </g>
</svg>
